PathFileType	4	(X/Y/Z)	D:\TRACE\v60_Jaco2_6-2-23\JustBodyDRS_Motion1_2-v60.trc
DataRate	CameraRate	NumFrames	NumMarkers	Units	OrigDataRate	OrigDataStartFrame	OrigNumFrames
100.00	100.00	      24	9	mm	100.00	6085	      6954
Frame#	Time	front left toe			Front right toe			aft left toe			aft right toe			Arm			FL body			FR body			AL Body			AR Body			
		X1	Y1	Z1	X2	Y2	Z2	X3	Y3	Z3	X4	Y4	Z4	X5	Y5	Z5	X6	Y6	Z6	X7	Y7	Z7	X8	Y8	Z8	X9	Y9	Z9	

6085	60.840	-121.08218	9.32532	-178.34441	246.53558	125.48123	-230.71494	-52.00985	152.51984	435.41235	331.92313	32.56968	394.35507	-47.75135	1198.79663	-341.16821	-23.60820	566.32141	-330.08206	135.83333	565.57904	-349.79486	90.97822	577.69324	608.55176	247.37956	571.30280	590.37659	
6086	60.850	-121.94056	9.23804	-178.24683	246.42354	131.44267	-229.37286	-51.42664	158.30292	437.11859	331.12320	32.36952	394.33737	-48.15158	1198.07715	-341.40964	-25.14179	566.14722	-329.50174	134.04988	564.52197	-349.06891	90.72430	577.96906	609.02563	246.98058	571.37781	590.54236	
6087	60.860	-122.91058	9.25653	-178.09921	245.69954	134.24727	-228.26602	-51.78154	162.03725	438.32016	329.76578	32.07803	394.34262	-48.30439	1197.29480	-341.68628	-26.55519	565.76575	-328.86148	132.14297	563.97522	-348.54025	90.64108	578.02820	609.48785	246.50079	570.99518	590.49457	
6088	60.870	-124.11927	9.19348	-177.74045	245.07550	134.84047	-226.63918	-52.99118	162.72502	440.00665	329.00027	32.09055	394.49017	-48.59956	1196.49390	-342.08197	-27.91518	565.29773	-328.25455	131.24373	563.60547	-348.52637	90.57010	578.09155	609.60901	246.77248	571.34930	591.36017	
6089	60.880	-124.88061	9.00276	-177.55963	243.89854	132.07823	-225.36867	-54.23183	161.37512	441.51788	328.30521	32.13639	394.55618	-49.18684	1196.50049	-342.25015	-28.83818	565.30695	-327.76566	130.26761	563.64844	-348.31332	90.23685	578.44165	610.01923	246.20166	571.43695	592.07007	
6090	60.890	-125.85763	9.21329	-177.49028	242.54514	127.66344	-224.22545	-54.84434	158.51593	443.07272	327.28708	32.02083	394.37848	-50.31512	1196.92920	-341.87604	-30.52976	565.37061	-327.22775	128.28735	563.07452	-347.73453	90.14629	579.09198	610.22241	246.19449	571.60431	591.70758	
6091	60.900	-127.14300	9.52779	-177.12500	241.07730	121.85592	-223.57172	-55.44993	154.47589	444.58484	326.37781	31.99330	394.24890	-51.00116	1197.01404	-341.20465	-31.78361	565.15344	-326.66782	127.57977	562.91956	-347.75281	89.92666	579.53955	610.57056	245.77965	571.89630	591.78674	
6092	60.910	-127.62812	9.22849	-177.17279	238.93303	115.01109	-222.94661	-56.02148	149.23680	445.61359	325.00494	31.74422	394.31085	-51.80597	1197.18591	-340.64664	-32.90606	565.17584	-326.46243	126.17871	562.86798	-347.47177	89.60150	579.87830	610.89166	245.14563	572.08112	592.58044	
6093	60.920	-128.99036	9.24802	-177.19751	237.01709	106.89953	-222.51846	-56.01163	142.21439	447.38327	324.28348	31.71799	394.28302	-52.41532	1197.18640	-340.37408	-34.96502	565.51807	-325.96414	124.42365	562.68109	-347.01129	89.25591	580.00311	611.29474	245.12384	572.17505	592.25525	
6094	60.930	-130.05374	9.23541	-177.17297	235.76077	98.90185	-222.08101	-56.49061	133.81213	448.86526	323.32996	31.58080	394.25720	-52.56188	1197.18030	-340.36481	-35.99846	565.59332	-325.60349	122.63311	562.44598	-346.69089	89.15668	579.98431	611.13837	244.73105	571.94263	592.47296	
6095	60.940	-130.65504	9.33836	-177.10658	234.85625	89.87876	-221.69820	-56.66809	124.36658	450.25223	322.36511	31.36432	394.27893	-52.63799	1197.44263	-340.34305	-36.99370	565.39294	-325.08090	121.45177	562.45007	-346.47931	88.71310	580.02722	611.73230	244.60400	571.67993	592.53064	
6096	60.950	-132.07872	9.48328	-176.86784	233.77327	80.30795	-221.70122	-57.09580	114.05962	451.33347	321.33334	31.00969	394.37735	-53.06437	1197.54529	-340.08649	-39.05195	565.72992	-324.70557	119.62309	562.34381	-346.58243	88.43436	579.99579	611.86700	244.15692	571.50909	592.58740	
6097	60.960	-132.81480	9.45293	-176.72221	232.47568	70.73637	-221.55484	-56.57383	102.32507	452.62579	320.67004	31.09084	394.32568	-53.90733	1197.61401	-339.64124	-40.05767	565.68335	-324.30640	118.49084	562.04553	-346.18671	87.43652	579.95801	611.50653	244.82756	571.44086	592.41010	
6098	60.970	-133.60443	9.07922	-176.55389	230.97050	60.69330	-221.60011	-56.94882	92.18871	452.96457	319.27701	30.67947	394.23007	-55.12822	1197.53943	-339.29160	-41.42513	565.63007	-323.88113	117.26013	562.27448	-346.51901	87.38509	579.90710	612.18756	243.46004	571.25537	592.61206	
6099	60.980	-135.12975	9.43505	-176.28221	229.49219	51.09857	-221.48471	-56.91316	82.52328	452.48279	318.81329	30.63702	394.31534	-56.13580	1197.48291	-339.04562	-42.64548	565.38611	-323.69113	115.86425	561.73169	-345.80212	86.66496	579.69714	612.37799	242.95244	571.22290	593.00800	
6100	60.990	-135.74289	9.41841	-176.46518	227.99789	41.60943	-221.56226	-57.73325	72.82105	452.26263	317.50903	30.38604	394.42624	-57.44509	1197.42944	-338.44986	-44.24884	565.53839	-323.63409	114.86420	561.73633	-346.18576	86.33173	579.59174	612.47388	242.48515	570.94019	592.99445	
6101	61.000	-136.76563	9.41350	-176.34480	226.94864	32.82238	-221.42274	-59.21741	63.91898	451.71964	316.51962	30.14307	394.52060	-58.45862	1197.34729	-338.43906	-45.72979	565.80798	-323.32376	112.63307	561.80280	-345.98138	86.08373	579.30402	612.49908	241.96059	570.81042	592.98468	
6102	61.010	-138.04099	9.56324	-176.11967	226.20290	24.81024	-221.56714	-60.79808	55.99049	451.26175	316.02066	30.12825	394.51004	-59.50914	1197.59204	-337.90201	-46.92321	566.02740	-323.03949	111.67896	561.85931	-345.83047	85.63358	578.66833	612.05249	241.40269	570.45966	592.84869	
6103	61.020	-138.82262	9.49583	-176.06499	225.62036	18.23044	-222.16043	-60.22216	47.87470	451.20190	315.04184	30.01221	394.59351	-60.71184	1197.81055	-337.67050	-48.36012	565.99890	-323.10297	110.91177	562.09570	-346.07373	84.95215	578.49512	612.66498	240.92445	570.04889	592.50763	
6104	61.030	-139.56497	9.39202	-176.00421	225.06458	12.28116	-222.97012	-59.67300	42.85398	449.77866	314.21320	29.75581	394.81152	-61.88196	1198.10181	-337.16541	-49.73149	566.15442	-323.06351	109.14857	562.25323	-346.16269	84.60208	579.55219	615.02240	239.84265	569.25922	592.43091	
6105	61.040	-140.70029	9.63703	-175.97990	224.02895	9.82075	-225.01366	-60.78689	38.46248	448.91763	313.26639	29.59381	394.75708	-63.28717	1198.35193	-336.17062	-50.78391	566.30127	-322.97720	107.50095	562.24469	-345.53198	83.93644	579.28754	614.84656	239.57794	569.48486	592.73810	
6106	61.050	-141.68619	10.08885	-175.81145	223.19704	6.96785	-224.97438	-62.32233	33.64905	447.72635	312.14984	29.33028	394.77875	-64.98591	1198.78235	-335.93533	-52.09483	566.66180	-322.90137	106.06611	563.04822	-346.06113	82.77972	577.47742	612.34888	238.84373	569.49670	592.66260	
6107	61.060	-142.45573	10.31345	-175.95865	222.99316	7.86910	-225.83026	-64.32265	31.23083	446.67691	311.57059	29.23821	394.64893	-66.52802	1199.34741	-335.30682	-53.90256	567.83142	-323.05789	104.57980	564.47992	-346.06195	81.60824	577.17871	612.27881	237.84480	569.44958	592.41632	
6108	61.070	-143.04936	10.49554	-176.16907	221.59364	8.14016	-225.35303	-65.53059	30.91703	446.85638	310.49185	29.65390	394.68384	-69.04491	1200.28503	-334.80148	-55.18237	568.58765	-322.53046	103.34205	565.04742	-345.75854	81.75857	578.78357	613.57251	237.07849	570.52881	592.19446	
